<?xml version="1.0" encoding="UTF-8"?>
<svg width="150" height="150" viewBox="0 0 150 150" xmlns="http://www.w3.org/2000/svg">
  <!-- Background -->
  <rect width="150" height="150" fill="#E5EEF4"/>
  
  <!-- Grid Pattern -->
  <g stroke="#A3B5C0" stroke-width="0.5" opacity="0.3">
    <line x1="0" y1="30" x2="150" y2="30" />
    <line x1="0" y1="60" x2="150" y2="60" />
    <line x1="0" y1="90" x2="150" y2="90" />
    <line x1="0" y1="120" x2="150" y2="120" />
    <line x1="30" y1="0" x2="30" y2="150" />
    <line x1="60" y1="0" x2="60" y2="150" />
    <line x1="90" y1="0" x2="90" y2="150" />
    <line x1="120" y1="0" x2="120" y2="150" />
  </g>

  <!-- Silhouette -->
  <g fill="#002B49">
    <!-- Head -->
    <circle cx="75" cy="55" r="25"/>
    <!-- Body -->
    <path d="M 45,140 C 45,90 105,90 105,140 L 105,150 L 45,150 Z"/>
  </g>

  <!-- Subtle Grid Overlay -->
  <g stroke="#002B49" stroke-width="0.5" opacity="0.1">
    <path d="M 0,0 L 150,150"/>
    <path d="M 150,0 L 0,150"/>
    <path d="M 75,0 L 75,150"/>
    <path d="M 0,75 L 150,75"/>
  </g>
</svg>
